<?xml version="1.0" encoding="utf-8"?>
<!-- Generator: Adobe Illustrator 21.0.2, SVG Export Plug-In . SVG Version: 6.00 Build 0)  -->
<svg version="1.1" id="Layer_1" xmlns="http://www.w3.org/2000/svg" xmlns:xlink="http://www.w3.org/1999/xlink" x="0px" y="0px"
	 viewBox="0 0 55.5 55.5" style="enable-background:new 0 0 55.5 55.5;" xml:space="preserve">
<style type="text/css">
	.st0{fill:url(#SVGID_1_);}
	.st1{display:none;fill:url(#Rectangle-path_1_);}
	.st2{fill:#FFFFFF;}
	.st3{fill:none;stroke:#FFFFFF;stroke-width:2;}
</style>
<g id="Page-1">
	<g id="Orders-Welcome" transform="translate(-646.000000, -94.000000)">
		<g id="Icon" transform="translate(646.000000, 94.000000)">
			<g id="Order">
				
					<linearGradient id="SVGID_1_" gradientUnits="userSpaceOnUse" x1="27.7" y1="55.6167" x2="27.7" y2="0.2271" gradientTransform="matrix(1 0 0 -1 0 56)">
					<stop  offset="0" style="stop-color:#90549D"/>
					<stop  offset="1" style="stop-color:#58388E"/>
				</linearGradient>
				<path class="st0" d="M43.2,55.2h-31c-6.6,0-12-5.4-12-12v-31c0-6.6,5.4-12,12-12h31c6.6,0,12,5.4,12,12v31
					C55.2,49.8,49.8,55.2,43.2,55.2z"/>
				
					<linearGradient id="Rectangle-path_1_" gradientUnits="userSpaceOnUse" x1="-47.4016" y1="46.2043" x2="-47.4016" y2="45.04" gradientTransform="matrix(48 0 0 -48 2303 2218)">
					<stop  offset="0" style="stop-color:#90549D"/>
					<stop  offset="1" style="stop-color:#58388E"/>
				</linearGradient>
				<rect id="Rectangle-path" x="0" y="0" class="st1" width="55.5" height="55.5"/>
				<path id="Shape" class="st2" d="M22.6,35.4c-1.2,0-2.2,0.7-2.7,1.7c-0.5,1.1-0.2,2.3,0.6,3.2c0.8,0.8,2.1,1.1,3.2,0.7
					c1.1-0.4,1.8-1.5,1.8-2.7C25.4,36.7,24.2,35.5,22.6,35.4z"/>
				<path id="Shape_1_" class="st3" d="M11.5,17.5h3.8c0.9,0,1.8,0.6,2.1,1.4l4.9,11.9l15.1-2.3v-7.8H18.3"/>
				<path id="Shape_2_" class="st2" d="M36.5,35.4c1.2,0,2.2,0.7,2.7,1.7c0.5,1.1,0.2,2.3-0.6,3.2c-0.8,0.8-2.1,1.1-3.2,0.7
					c-1.1-0.4-1.8-1.5-1.8-2.7C33.6,36.7,34.9,35.5,36.5,35.4z"/>
			</g>
		</g>
	</g>
</g>
</svg>
