<?xml version="1.0" encoding="utf-8"?>
<!-- Generator: Adobe Illustrator 24.0.1, SVG Export Plug-In . SVG Version: 6.00 Build 0)  -->
<svg version="1.1" id="Layer_1" xmlns="http://www.w3.org/2000/svg" xmlns:xlink="http://www.w3.org/1999/xlink" x="0px" y="0px"
	 viewBox="0 0 24 24" style="enable-background:new 0 0 24 24;" xml:space="preserve">
<style type="text/css">
	.st0{fill-rule:evenodd;clip-rule:evenodd;fill:url(#SVGID_1_);}
	.st1{fill:#FFFFFF;}
</style>
<linearGradient id="SVGID_1_" gradientUnits="userSpaceOnUse" x1="12" y1="24" x2="12" y2="-1.818989e-12">
	<stop  offset="0" style="stop-color:#27666B"/>
	<stop  offset="1" style="stop-color:#4F9689"/>
</linearGradient>
<path class="st0" d="M0,0h24v24H0V0z"/>
<g>
	<path class="st1" d="M9.775,10.793h4.312v2.156h1.5v-2.595l2.278-2.279c0.293-0.293,0.293-0.768,0-1.061s-0.768-0.293-1.061,0
		l-2.278,2.279h-5.19L7.069,7.027c-0.293-0.293-0.768-0.293-1.061,0s-0.293,0.768,0,1.061l2.267,2.266v5.501
		c0,0.414,0.336,0.75,0.75,0.75h1.98v-1.5h-1.23V10.793z"/>
	<path class="st1" d="M17.892,13.924c-0.293-0.293-0.768-0.293-1.061,0l-2.007,2.007l-0.978-0.978c-0.293-0.293-0.768-0.293-1.061,0
		s-0.293,0.768,0,1.061l1.508,1.508c0.141,0.141,0.331,0.22,0.53,0.22s0.39-0.079,0.53-0.22l2.537-2.538
		C18.185,14.691,18.185,14.217,17.892,13.924z"/>
</g>
</svg>
